<?xml version="1.0" standalone="no"?>
<!DOCTYPE svg PUBLIC "-//W3C//DTD SVG 20010904//EN"
 "http://www.w3.org/TR/2001/REC-SVG-20010904/DTD/svg10.dtd">
<svg version="1.0" xmlns="http://www.w3.org/2000/svg"
 width="500.000000pt" height="500.000000pt" viewBox="0 0 500.000000 500.000000"
 preserveAspectRatio="xMidYMid meet">

<g transform="translate(0.000000,500.000000) scale(0.100000,-0.100000)"
fill="#000000" stroke="none">
<path d="M2270 4284 c-19 -3 -78 -14 -130 -25 -251 -53 -460 -142 -665 -284
-445 -309 -729 -808 -765 -1344 -28 -410 72 -792 295 -1127 131 -197 306 -373
499 -502 171 -114 413 -215 633 -264 88 -20 126 -22 363 -22 235 0 276 2 361
21 481 109 872 373 1134 767 224 336 324 722 294 1134 -36 513 -297 989 -712
1299 -214 159 -428 257 -700 320 -100 23 -136 26 -342 28 -126 2 -246 1 -265
-1z m573 -575 c12 -6 36 -24 52 -39 22 -20 44 -29 85 -34 74 -8 138 -43 175
-95 l30 -43 -3 -136 c-2 -76 -4 -166 -5 -201 l-2 -65 70 -58 c111 -93 110
-117 -1 -203 -36 -27 -67 -60 -70 -72 -4 -13 -1 -76 6 -141 21 -198 4 -285
-64 -337 -39 -30 -141 -57 -198 -53 l-42 3 -425 631 c-458 680 -444 662 -471
578 -8 -24 -10 -63 -6 -108 20 -227 20 -232 -2 -268 -12 -19 -41 -48 -66 -66
-70 -51 -69 -65 7 -136 38 -35 69 -73 73 -89 3 -16 4 -61 0 -100 -19 -214 -18
-230 3 -265 12 -18 32 -38 46 -44 23 -10 28 -7 64 34 64 73 142 84 222 33 131
-85 64 -295 -95 -295 -56 0 -105 23 -131 63 -12 19 -28 26 -68 31 -84 11 -152
49 -185 104 -24 42 -27 56 -27 142 0 52 4 138 9 192 10 109 19 92 -98 191 -81
70 -76 91 46 184 57 44 63 61 54 151 -18 192 -19 242 -6 288 27 96 122 154
249 154 l56 0 424 -630 c233 -347 427 -630 432 -630 4 0 17 12 29 28 24 29 24
43 4 283 -8 93 5 123 77 176 76 57 75 73 -7 148 l-69 62 1 74 c0 41 4 119 8
174 7 84 6 106 -7 131 -19 37 -78 67 -85 43 -10 -29 -79 -87 -117 -98 -58 -16
-117 2 -159 50 -73 80 -56 193 38 250 35 21 115 25 149 8z m-1131 -1914 c26
-44 51 -81 55 -82 5 -1 30 36 56 82 40 70 53 85 73 85 l24 0 0 -135 0 -135
-25 0 c-24 0 -24 2 -27 88 l-3 87 -44 -72 c-24 -40 -49 -73 -55 -73 -7 0 -30
30 -51 68 l-40 67 -3 -82 c-3 -81 -3 -83 -27 -83 l-25 0 0 136 c0 134 0 135
22 132 15 -2 36 -27 70 -83z m488 65 c0 -17 -8 -19 -72 -22 l-73 -3 -3 -32 -3
-32 68 -3 c54 -2 68 -6 71 -20 3 -14 -7 -18 -65 -20 l-68 -3 0 -35 0 -35 78
-3 c69 -3 77 -5 77 -22 0 -19 -7 -20 -105 -20 l-105 0 0 135 0 135 100 0 c93
0 100 -1 100 -20z m192 -71 l73 -91 3 91 c3 89 3 91 27 91 l25 0 0 -135 c0
-135 0 -135 -23 -135 -18 0 -41 22 -93 87 l-69 88 -3 -88 c-3 -85 -3 -87 -27
-87 l-25 0 0 135 c0 128 1 135 20 135 13 0 45 -31 92 -91z m408 73 c91 -48 91
-186 0 -234 -25 -13 -56 -18 -117 -18 l-83 0 0 135 0 135 83 0 c61 0 92 -5
117 -18z m330 -2 c0 -18 -7 -20 -70 -20 l-70 0 0 -35 0 -35 65 0 c58 0 65 -2
65 -20 0 -18 -7 -20 -65 -20 l-65 0 0 -40 0 -40 75 0 c68 0 75 -2 75 -20 0
-19 -7 -20 -100 -20 l-100 0 0 135 0 135 95 0 c88 0 95 -1 95 -20z m256 8 c3
-4 3 -16 -1 -27 -5 -17 -10 -19 -26 -10 -11 5 -39 9 -62 7 -37 -3 -42 -6 -42
-28 0 -21 8 -28 55 -43 70 -23 90 -42 90 -83 0 -48 -38 -74 -106 -74 -49 0
-104 15 -104 29 0 3 4 12 9 20 8 12 14 13 36 3 30 -14 84 -16 103 -3 30 18 7
45 -56 67 -73 25 -78 29 -87 66 -6 22 -1 33 24 59 30 30 35 31 96 27 35 -2 67
-7 71 -10z m-1663 -435 c-20 -4 -23 -11 -25 -61 l-2 -57 -3 57 c-3 49 -7 57
-26 61 -12 2 1 4 28 4 28 0 40 -2 28 -4z m155 0 c-30 -3 -38 -9 -38 -24 0 -14
8 -19 33 -21 l32 -1 -32 -4 c-27 -4 -33 -9 -33 -28 0 -20 6 -24 38 -28 34 -3
33 -4 -10 -5 l-48 -2 0 60 0 60 48 -2 c43 -1 44 -2 10 -5z m207 -3 c4 -6 -5
-7 -23 -4 -20 4 -34 1 -45 -11 -37 -36 -6 -91 45 -81 18 3 27 2 23 -4 -10 -16
-57 -12 -77 7 -22 20 -24 66 -2 87 17 18 69 22 79 6z m145 -37 l35 -47 6 50
c6 49 6 48 7 -16 l1 -65 -44 50 -44 50 -4 -50 c-3 -48 -3 -48 -5 13 -1 34 1
62 6 62 4 0 23 -22 42 -47z m245 33 c11 -8 18 -26 18 -46 0 -37 -23 -60 -62
-60 -53 0 -80 62 -44 102 19 21 62 24 88 4z m125 -40 c0 -54 0 -55 33 -59 28
-3 26 -4 -10 -5 l-43 -2 0 60 c0 33 4 60 10 60 6 0 10 -24 10 -54z m246 29
c34 -52 -14 -110 -74 -89 -64 23 -46 114 23 114 26 0 39 -6 51 -25z m189 15
c4 -6 -5 -7 -23 -4 -51 10 -82 -45 -46 -81 23 -22 58 -15 62 13 4 26 22 30 22
4 0 -41 -57 -57 -92 -25 -22 20 -24 66 -2 87 17 18 69 22 79 6z m112 -82 c-2
-18 -4 -4 -4 32 0 36 2 50 4 33 2 -18 2 -48 0 -65z m178 35 c14 -31 23 -58 20
-61 -2 -3 -7 3 -11 12 -9 22 -70 22 -83 -1 -5 -10 -12 -16 -14 -13 -7 7 44
120 54 120 5 0 21 -25 34 -57z"/>
<path d="M2726 3619 c-37 -29 -37 -89 0 -118 15 -12 37 -21 49 -21 12 0 34 9
49 21 37 29 37 89 0 118 -15 12 -37 21 -49 21 -12 0 -34 -9 -49 -21z"/>
<path d="M2175 2355 c-16 -15 -25 -36 -25 -55 0 -38 39 -80 73 -80 32 0 73 33
81 65 7 29 -15 79 -39 89 -33 12 -66 5 -90 -19z"/>
<path d="M2654 1827 c-3 -8 -4 -49 -2 -93 l3 -79 37 -3 c51 -4 106 21 119 55
17 44 3 91 -34 113 -37 23 -115 27 -123 7z"/>
<path d="M2397 1412 c-22 -25 -21 -45 3 -67 29 -27 74 -10 78 28 6 53 -46 77
-81 39z"/>
<path d="M2762 1418 c-22 -22 -14 -67 14 -80 30 -14 53 -3 65 29 16 44 -46 84
-79 51z"/>
<path d="M3281 1402 c-17 -32 -13 -42 14 -42 28 0 30 5 11 39 -13 24 -14 24
-25 3z"/>
</g>
</svg>
