<svg version="1.2" xmlns="http://www.w3.org/2000/svg" viewBox="0 0 485 243" width="485" height="243">
	<title>Novo Projeto</title>
	<defs>
		<clipPath clipPathUnits="userSpaceOnUse" id="cp1">
			<path d="m7.48 45.47h469.58v139.7h-469.58z"/>
		</clipPath>
	</defs>
	<style>
		.s0 { fill: #000b4c } 
		.s1 { fill: #00d4a9 } 
	</style>
	<g id="escala" clip-path="url(#cp1)">
		<g id="Grupo_162">
			<path id="Caminho_135" fill-rule="evenodd" class="s0" d="m179.9 78.6q1.5 1.1 2.9 2.5 1.3 1.4 2.5 2.9 1.1 1.5 2 3.2 1 1.8 1.7 3.8 0.7 1.9 1.2 3.9 0.5 2 0.7 4.1 0.2 2 0.1 4.1 0 1.1 0 2.4 0 0.3 0 0.5 0 0.3-0.1 0.5 0 0.2 0 0.5 0 0.2-0.1 0.5h-47.1q0.1 0.7 0.3 1.4 0.2 0.6 0.4 1.3 0.2 0.7 0.4 1.4 0.3 0.6 0.6 1.3 0.4 1 1.1 1.9 0.6 1 1.3 1.8 0.8 0.9 1.7 1.6 0.8 0.7 1.8 1.2 1.1 0.6 2.3 1.1 1.1 0.4 2.4 0.7 1.2 0.3 2.4 0.4 1.2 0.2 2.5 0.1 0.8 0 1.7 0 0.8 0 1.6-0.1 0.9-0.1 1.7-0.3 0.8-0.1 1.6-0.3 0.6-0.1 1.2-0.3 0.6-0.2 1.2-0.5 0.6-0.2 1.1-0.5 0.6-0.3 1.1-0.6 0.4-0.3 0.8-0.6 0.3-0.3 0.7-0.6 0.3-0.4 0.6-0.7 0.3-0.4 0.6-0.8 0.2-0.3 0.4-0.7 0.1-0.3 0.3-0.7 0.1-0.3 0.2-0.7 0.1-0.4 0.1-0.8h14.4q-0.1 1-0.3 1.9-0.2 1-0.5 1.9-0.3 0.9-0.7 1.7-0.4 0.9-0.9 1.7-0.6 0.9-1.3 1.8-0.6 0.8-1.4 1.6-0.7 0.8-1.5 1.6-0.8 0.7-1.7 1.3-1.1 0.8-2.2 1.4-1.1 0.7-2.2 1.2-1.2 0.6-2.4 1.1-1.2 0.4-2.4 0.8-1.5 0.4-3 0.8-1.6 0.3-3.1 0.5-1.5 0.2-3.1 0.3-1.6 0.1-3.1 0.1-2.1 0-4.3-0.2-2.1-0.2-4.2-0.7-2-0.5-4-1.2-2-0.8-3.9-1.8-1.7-0.9-3.3-2-1.5-1.2-2.9-2.5-1.4-1.4-2.6-2.9-1.2-1.6-2.1-3.3-1-1.7-1.8-3.6-0.7-2-1.2-3.9-0.5-2-0.8-4.1-0.2-2-0.2-4 0-2.1 0.2-4.2 0.3-2 0.8-4 0.5-2 1.2-4 0.8-1.9 1.8-3.7 1-1.7 2.2-3.2 1.2-1.5 2.6-2.9 1.4-1.3 3-2.4 1.5-1.2 3.3-2.1 1.8-1 3.8-1.7 2-0.7 4-1.2 2.1-0.5 4.2-0.7 2.1-0.2 4.2-0.2 2.1 0 4.2 0.2 2.1 0.2 4.2 0.7 2.1 0.5 4 1.2 2 0.8 3.9 1.7 1.7 1 3.2 2.1zm-35 15.1q-0.2 0.6-0.4 1.1-0.2 0.6-0.4 1.2-0.1 0.6-0.2 1.2h32.2q0-0.8-0.2-1.5-0.1-0.8-0.3-1.5-0.2-0.7-0.5-1.4-0.3-0.7-0.6-1.4-0.5-0.8-1-1.6-0.6-0.8-1.2-1.5-0.7-0.6-1.4-1.2-0.7-0.6-1.6-1.1-1-0.5-2-0.9-1.1-0.4-2.2-0.7-1.1-0.3-2.3-0.4-1.1-0.1-2.2 0-1.2-0.1-2.4 0.1-1.2 0.1-2.4 0.4-1.1 0.3-2.2 0.7-1.1 0.4-2.2 1-0.9 0.6-1.8 1.3-0.9 0.6-1.6 1.5-0.8 0.8-1.4 1.7-0.7 0.9-1.1 1.9-0.3 0.5-0.6 1.1z"/>
			<path id="Caminho_136" class="s0" d="m242.1 102.3q-0.9-0.5-1.8-0.9-0.9-0.5-1.8-0.8-1-0.4-1.9-0.8-1-0.3-1.9-0.6-1-0.2-2.1-0.5-1-0.2-2-0.5-1-0.2-2-0.4-1-0.2-2-0.4-1-0.1-1.9-0.3-1-0.2-1.9-0.4-0.9-0.2-1.8-0.4-1-0.2-1.9-0.5-0.7-0.1-1.3-0.4-0.7-0.2-1.3-0.5-0.7-0.3-1.3-0.6-0.6-0.4-1.1-0.8-0.5-0.3-0.8-0.7-0.4-0.3-0.6-0.8-0.2-0.5-0.3-1-0.2-0.5-0.1-1-0.1-0.5 0-1.1 0.1-0.5 0.4-0.9 0.2-0.5 0.5-0.9 0.4-0.4 0.8-0.7 0.5-0.4 1-0.6 0.5-0.3 1.1-0.6 0.6-0.2 1.1-0.4 0.6-0.1 1.2-0.2 0.6-0.2 1.3-0.2 0.6-0.1 1.2-0.2 0.7-0.1 1.3-0.1 0.7 0 1.3 0 0.7 0 1.3 0 0.7 0 1.4 0.1 0.6 0.1 1.3 0.3 0.7 0.1 1.3 0.3 0.6 0.2 1.1 0.4 0.6 0.2 1.1 0.5 0.5 0.3 1 0.7 0.5 0.4 0.9 0.8 0.4 0.4 0.7 0.9 0.3 0.4 0.5 1 0.2 0.5 0.3 1.1 0.1 0.5 0.1 1.1v0.7h14.3v-0.9q0-1.3-0.2-2.7-0.2-1.3-0.7-2.6-0.4-1.2-1.1-2.4-0.7-1.2-1.6-2.2-0.9-1.1-2-2-1-0.9-2.2-1.7-1.2-0.8-2.5-1.5-1.2-0.6-2.6-1.1-1.4-0.6-3-1-1.5-0.4-3.1-0.7-1.5-0.2-3.1-0.4-1.6-0.1-3.2-0.1-1.6 0-3.2 0.1-1.7 0.1-3.3 0.4-1.6 0.2-3.1 0.6-1.6 0.4-3.2 0.9-1.3 0.5-2.5 1.1-1.3 0.6-2.4 1.3-1.2 0.8-2.3 1.7-1 0.9-2 1.9-0.8 1-1.5 2.1-0.6 1.2-1.1 2.4-0.4 1.2-0.6 2.5-0.2 1.3-0.2 2.7 0 0.9 0.1 1.9 0.1 1 0.4 1.9 0.2 0.9 0.6 1.8 0.4 0.9 0.9 1.7 0.5 0.8 1.1 1.5 0.6 0.7 1.3 1.3 0.7 0.7 1.4 1.2 0.7 0.6 1.5 1.1 0.9 0.5 1.8 0.9 0.9 0.5 1.8 0.9 0.9 0.4 1.9 0.8 0.9 0.3 1.9 0.6 1 0.3 2 0.6 1.1 0.2 2.1 0.5 1 0.2 2.1 0.4 1 0.2 2 0.4 1.5 0.2 2.9 0.4 1.4 0.3 2.8 0.6 1.4 0.4 2.7 0.8 1.4 0.4 2.7 0.9 0.8 0.2 1.5 0.7 0.6 0.5 1.1 1.2 0.5 0.6 0.7 1.4 0.3 0.8 0.3 1.6 0 0.5-0.1 1-0.1 0.5-0.3 1-0.3 0.4-0.6 0.8-0.3 0.4-0.7 0.7-0.5 0.4-1 0.7-0.5 0.3-1.1 0.6-0.5 0.2-1.1 0.4-0.6 0.2-1.2 0.4-0.7 0.1-1.4 0.2-0.7 0.2-1.5 0.3-0.7 0-1.4 0.1-0.7 0-1.5 0-1.1 0.1-2.3 0-1.1-0.1-2.2-0.3-1.2-0.2-2.3-0.6-1-0.4-2.1-0.9-0.7-0.3-1.4-0.9-0.6-0.5-1-1.3-0.4-0.7-0.7-1.5-0.2-0.8-0.1-1.6v-1h-14.4v1.3q0 1 0.1 2 0.1 1.1 0.4 2.1 0.3 1 0.7 1.9 0.4 1 0.9 1.9 0.5 0.9 1.2 1.7 0.6 0.8 1.3 1.5 0.8 0.7 1.6 1.3 0.8 0.7 1.7 1.2 0.9 0.6 1.9 1.1 1 0.5 2.1 1 1 0.4 2.1 0.8 1.1 0.3 2.2 0.6 1.2 0.3 2.4 0.5 1.3 0.2 2.5 0.4 1.2 0.1 2.5 0.2 1.2 0 2.5 0 1.2 0 2.4 0 1.3-0.1 2.5-0.2 1.2-0.2 2.4-0.3 1.2-0.2 2.4-0.5 1.2-0.2 2.3-0.6 1-0.3 2.1-0.7 1.1-0.4 2.1-0.9 1-0.5 2-1.1 0.9-0.5 1.7-1.1 0.9-0.6 1.6-1.3 0.8-0.7 1.4-1.5 0.7-0.8 1.3-1.7 0.5-0.9 1-1.9 0.4-1 0.7-2 0.2-1.1 0.4-2.2 0.1-1 0.1-2.1 0-1-0.1-2-0.1-1-0.4-2-0.3-1-0.7-1.9-0.4-0.9-1-1.8-0.5-0.7-1.1-1.5-0.6-0.7-1.3-1.3-0.7-0.6-1.5-1.2-0.7-0.5-1.6-1z"/>
			<path id="Caminho_137" class="s0" d="m308.7 80.1q-1-0.8-2-1.6-1.1-0.8-2.2-1.5-1.2-0.7-2.3-1.2-1.2-0.6-2.5-1.1-1.4-0.5-2.9-0.9-1.6-0.4-3.1-0.6-1.5-0.3-3.1-0.4-1.5-0.1-3.1-0.1-2.1 0-4.2 0.2-2.1 0.2-4.2 0.6-2 0.5-4 1.2-2 0.7-3.9 1.7-1.7 0.8-3.3 1.9-1.6 1.1-3 2.5-1.4 1.3-2.6 2.8-1.2 1.5-2.2 3.1-1 1.9-1.8 3.8-0.7 1.9-1.2 3.9-0.5 2-0.8 4.1-0.2 2.1-0.2 4.1 0 2.1 0.2 4.2 0.3 2.1 0.8 4.1 0.5 2.1 1.2 4 0.8 2 1.8 3.8 1 1.7 2.2 3.2 1.2 1.6 2.6 2.9 1.4 1.4 3 2.5 1.6 1.1 3.3 2.1 1.9 0.9 3.9 1.7 2 0.7 4 1.2 2.1 0.4 4.2 0.7 2.1 0.2 4.2 0.1 1.6 0.1 3.2 0 1.5-0.1 3.1-0.4 1.5-0.3 3.1-0.7 1.5-0.4 3-0.9 1.2-0.4 2.4-1 1.2-0.6 2.3-1.3 1.2-0.6 2.2-1.4 1.1-0.8 2-1.7 0.9-0.8 1.7-1.7 0.8-0.8 1.4-1.8 0.7-0.9 1.3-1.9 0.6-1 1.1-2.1 0.5-0.9 0.8-1.9 0.4-1 0.6-2.1 0.2-1 0.4-2 0.1-1.1 0.1-2.1h-14.4q0 0.7-0.2 1.4-0.1 0.8-0.3 1.5-0.3 0.7-0.6 1.3-0.3 0.7-0.7 1.3-0.4 0.7-0.9 1.3-0.5 0.6-1.1 1.1-0.6 0.5-1.3 0.9-0.7 0.5-1.4 0.8-0.9 0.4-1.9 0.7-1 0.3-2 0.5-1 0.2-2 0.3-1 0-2 0-1.1 0-2.2-0.1-1.1-0.1-2.2-0.4-1-0.3-2-0.7-1.1-0.4-2-1-1-0.5-1.8-1.2-0.9-0.7-1.6-1.5-0.8-0.8-1.4-1.7-0.7-0.9-1.2-1.9-0.5-1.1-1-2.4-0.4-1.2-0.7-2.5-0.3-1.2-0.4-2.5-0.1-1.3-0.1-2.6 0-1.3 0.1-2.6 0.1-1.3 0.4-2.6 0.3-1.2 0.7-2.4 0.5-1.3 1.1-2.4 0.5-1 1.1-1.8 0.7-0.9 1.4-1.7 0.8-0.7 1.6-1.4 0.9-0.6 1.9-1.1 1.8-0.9 3.7-1.4 2-0.5 4-0.6 2-0.1 4 0.3 2 0.3 3.9 1.1 0.7 0.3 1.3 0.6 0.7 0.4 1.3 0.9 0.6 0.5 1.1 1 0.6 0.5 1.1 1.1 0.4 0.5 0.8 1.1 0.4 0.6 0.6 1.3 0.3 0.6 0.5 1.3 0.2 0.7 0.3 1.4 0.1 0.3 0.1 0.6 0.1 0.1 0.1 0.2 0 0.1 0 0.1 0 0.1 0 0.2 0 0.1 0 0.1h14.3v-0.4q0-1-0.1-2.1-0.2-1-0.4-2-0.2-1-0.6-2-0.4-1-0.8-1.9-0.5-1.1-1.1-2.1-0.6-1-1.3-1.9-0.7-0.9-1.5-1.8-0.8-0.8-1.7-1.6"/>
			<path id="Caminho_138" fill-rule="evenodd" class="s0" d="m369.2 73.7h14.5v58.2h-14.5v-6.4q-0.6 0.7-1.3 1.3-0.7 0.7-1.5 1.2-0.7 0.6-1.5 1.1-0.8 0.6-1.6 1-1.5 0.8-3 1.3-1.5 0.6-3.1 1-1.6 0.4-3.2 0.6-1.6 0.2-3.2 0.1-1.4 0-2.7-0.1-1.3-0.1-2.6-0.3-1.4-0.3-2.7-0.6-1.3-0.4-2.5-0.8-1.3-0.5-2.5-1.1-1.2-0.6-2.3-1.3-1.2-0.7-2.2-1.5-1.1-0.9-2.1-1.8-1-1-1.9-2.1-0.9-1.1-1.7-2.3-0.8-1.2-1.5-2.5-0.7-1.3-1.2-2.7-0.6-1.6-1.1-3.3-0.4-1.6-0.7-3.3-0.3-1.7-0.4-3.5-0.2-1.7-0.1-3.4-0.1-1.7 0.1-3.3 0.1-1.7 0.4-3.3 0.3-1.7 0.8-3.3 0.4-1.6 1.1-3.1 0.5-1.3 1.2-2.6 0.7-1.2 1.5-2.4 0.8-1.2 1.7-2.3 0.9-1 2-2 0.9-0.9 2-1.8 1.1-0.8 2.2-1.5 1.1-0.7 2.3-1.3 1.2-0.6 2.5-1 1.2-0.5 2.5-0.8 1.3-0.4 2.6-0.6 1.3-0.2 2.6-0.4 1.3-0.1 2.7-0.1 1.6 0 3.2 0.2 1.6 0.2 3.2 0.6 1.6 0.4 3.1 1 1.5 0.6 3 1.4 0.8 0.4 1.6 1 0.8 0.5 1.5 1.1 0.8 0.6 1.4 1.2 0.7 0.7 1.4 1.4zm-2.1 40.2q0.5-1 0.9-2 0.4-1 0.7-2 0.3-1.1 0.4-2.2 0.1-1.1 0.1-2.2v-5.7q0-1-0.1-2.1-0.1-1.1-0.4-2.2-0.3-1-0.7-2-0.4-1-1-1.9-0.5-0.8-1.1-1.6-0.6-0.7-1.3-1.3-0.7-0.6-1.5-1.1-0.8-0.6-1.6-1-0.9-0.4-1.8-0.7-0.9-0.3-1.8-0.5-0.9-0.2-1.8-0.3-1-0.1-1.9-0.1-1 0-2.1 0.1-1 0.1-2 0.3-1 0.2-2 0.6-0.9 0.3-1.9 0.7-0.9 0.5-1.8 1-0.9 0.6-1.6 1.3-0.8 0.7-1.5 1.6-0.6 0.8-1.2 1.7-0.6 1.2-1.1 2.4-0.4 1.3-0.7 2.6-0.3 1.3-0.4 2.6-0.2 1.3-0.1 2.6-0.1 1.4 0.1 2.7 0.1 1.4 0.4 2.7 0.3 1.3 0.7 2.6 0.5 1.2 1.1 2.4 0.6 1 1.2 1.8 0.7 0.9 1.4 1.6 0.8 0.8 1.7 1.4 0.9 0.6 1.8 1.1 0.9 0.5 1.9 0.8 1 0.4 2 0.6 1 0.3 2 0.4 1.1 0.1 2.1 0.1 0.9 0 1.9-0.1 0.9-0.1 1.9-0.3 0.9-0.2 1.8-0.6 0.9-0.3 1.7-0.7 0.9-0.4 1.7-1 0.7-0.5 1.4-1.2 0.8-0.6 1.4-1.3 0.6-0.8 1.1-1.6z"/>
			<path id="Retângulo_427" class="s0" d="m395 45.5h14.2v86.4h-14.2z"/>
			<path id="Caminho_139" fill-rule="evenodd" class="s0" d="m476.7 73.7v58.2h-14.5v-6.4q-0.6 0.7-1.3 1.3-0.7 0.7-1.5 1.2-0.7 0.6-1.5 1.1-0.8 0.6-1.6 1-1.5 0.8-3 1.3-1.5 0.6-3.1 1-1.6 0.4-3.2 0.6-1.6 0.2-3.2 0.1-1.3 0-2.7-0.1-1.3-0.1-2.6-0.3-1.4-0.3-2.6-0.6-1.3-0.4-2.6-0.8-1.3-0.5-2.5-1.1-1.2-0.6-2.3-1.3-1.1-0.7-2.2-1.5-1.1-0.9-2-1.8-1.1-1-2-2.1-0.9-1.1-1.7-2.3-0.8-1.2-1.5-2.5-0.6-1.3-1.2-2.7-0.6-1.6-1-3.3-0.5-1.6-0.8-3.3-0.3-1.7-0.4-3.5-0.1-1.7-0.1-3.4 0-1.7 0.1-3.3 0.1-1.7 0.4-3.3 0.3-1.7 0.8-3.3 0.5-1.6 1.1-3.1 0.5-1.3 1.2-2.6 0.7-1.2 1.5-2.4 0.8-1.2 1.7-2.3 0.9-1 2-2 0.9-0.9 2-1.8 1.1-0.8 2.2-1.5 1.2-0.7 2.4-1.3 1.2-0.6 2.4-1 1.3-0.5 2.5-0.8 1.3-0.4 2.6-0.6 1.3-0.2 2.6-0.4 1.4-0.1 2.7-0.1 1.6 0 3.2 0.2 1.6 0.2 3.2 0.6 1.6 0.4 3.1 1 1.5 0.6 3 1.4 0.8 0.4 1.6 1 0.8 0.5 1.5 1.1 0.8 0.6 1.5 1.2 0.7 0.7 1.3 1.4v-6.9zm-15.6 38.3q0.4-1 0.7-2.1 0.2-1.1 0.3-2.1 0.2-1.1 0.1-2.2v-5.7q0.1-1.1-0.1-2.2-0.1-1.1-0.3-2.1-0.3-1.1-0.7-2.1-0.5-1-1-1.9-0.5-0.8-1.1-1.5-0.7-0.7-1.4-1.4-0.7-0.6-1.5-1.1-0.7-0.5-1.6-0.9-0.8-0.4-1.7-0.7-0.9-0.4-1.8-0.6-1-0.2-1.9-0.3-0.9-0.1-1.9-0.1-1 0-2 0.1-1 0.1-2 0.4-1.1 0.2-2 0.5-1 0.3-1.9 0.8-1 0.4-1.9 1-0.8 0.6-1.6 1.3-0.8 0.7-1.4 1.5-0.7 0.8-1.2 1.7-0.7 1.2-1.1 2.5-0.5 1.2-0.8 2.5-0.3 1.3-0.4 2.6-0.1 1.4-0.1 2.7 0 1.3 0.1 2.7 0.1 1.3 0.4 2.6 0.3 1.4 0.8 2.6 0.4 1.3 1.1 2.5 0.5 0.9 1.1 1.8 0.7 0.8 1.5 1.6 0.7 0.7 1.6 1.4 0.9 0.6 1.9 1.1 0.9 0.4 1.9 0.8 0.9 0.3 1.9 0.6 1 0.2 2.1 0.3 1 0.1 2 0.1 1 0 1.9-0.1 1-0.1 1.9-0.3 0.9-0.2 1.8-0.5 0.9-0.3 1.8-0.8 0.8-0.4 1.6-0.9 0.8-0.6 1.5-1.2 0.7-0.7 1.3-1.4 0.6-0.7 1.1-1.6 0.6-0.9 1-1.9z"/>
			<path id="Retângulo_428" class="s1" d="m7.5 74.5h17.8v46.8h-17.8z"/>
			<path id="Retângulo_429" class="s1" d="m25.3 45.5h69.2v17.8h-69.2z"/>
			<path id="Retângulo_430" class="s1" d="m25.3 132.4h69.2v15.7h-69.2z"/>
			<path id="Retângulo_431" class="s1" d="m36.5 74.5h58v17.8h-58z"/>
			<path id="Retângulo_432" class="s1" d="m36.5 103.5h58v17.8h-58z"/>
			<path id="Caminho_140" fill-rule="evenodd" class="s0" d="m234.6 184.8h-3.6v-26.7h8.5q0.8-0.1 1.5 0 0.8 0.1 1.5 0.2 0.7 0.2 1.4 0.4 0.8 0.2 1.4 0.5 0.6 0.3 1.1 0.6 0.5 0.3 0.9 0.7 0.4 0.4 0.8 0.9 0.4 0.4 0.7 0.9 0.3 0.5 0.5 1 0.2 0.5 0.4 1.1 0.1 0.5 0.2 1.1 0.1 0.6 0.1 1.1 0 1.2-0.3 2.4-0.4 1.1-1 2.1-0.6 1-1.5 1.8-0.9 0.8-1.9 1.3-0.7 0.4-1.4 0.6-0.7 0.3-1.4 0.4-0.8 0.2-1.5 0.2-0.7 0.1-1.5 0.1h-5zm0-12.1h-1.5l1.5 1.6zm4.6 0q0.5 0 1 0 0.6-0.1 1.1-0.2 0.5-0.1 1-0.2 0.5-0.2 1-0.4 0.4-0.1 0.7-0.4 0.4-0.2 0.7-0.5 0.3-0.2 0.5-0.6 0.3-0.3 0.5-0.6 0.2-0.4 0.4-0.8 0.1-0.4 0.2-0.8 0.1-0.4 0.2-0.8 0-0.4 0-0.8 0-0.5 0-0.9 0-0.4-0.1-0.8-0.1-0.4-0.3-0.8-0.1-0.3-0.3-0.7-0.3-0.3-0.5-0.6-0.3-0.3-0.6-0.6-0.3-0.2-0.6-0.4-0.4-0.2-0.7-0.4-0.5-0.2-1.1-0.3-0.5-0.2-1-0.2-0.5-0.1-1-0.2-0.6 0-1.1 0h-4.6v12zm-4.5-12v-1.7l-1.6 1.7z"/>
			<path id="Caminho_141" class="s0" d="m263.2 184.8v-26.7h3.5v25.7l-1.6-1.7h13.6v2.7z"/>
			<path id="Caminho_142" fill-rule="evenodd" class="s0" d="m290.6 184.8l8.4-26.8h5.4l8.3 26.8h-3.6l-2.2-7.1h1.5v-2.7h-2.3l-4.4-14.9-4.5 14.9h-2.2v2.7h1.4l-2.2 7.1zm11.1-24.7v-0.1zm5.2 17.6l-0.8-2.7h-8.9l-0.8 2.7z"/>
			<path id="Caminho_143" class="s0" d="m328.9 184.8h-3.4v-26.7h5.7l12.8 24.9-0.3 0.2v-25.1h3.4v26.7h-5.8l-12.8-24.9 0.4-0.1z"/>
			<path id="Caminho_144" class="s0" d="m379.6 160.8h-8.8l0.8-1.8v25.8h-3.5v-25.8l1 1.8h-8.9v-2.7h19.4z"/>
			<path id="Caminho_145" fill-rule="evenodd" class="s0" d="m401.4 185.2q-0.6 0-1.3-0.1-0.6 0-1.2-0.2-0.6-0.1-1.2-0.2-0.6-0.2-1.2-0.5-0.5-0.2-1-0.5-0.5-0.3-1-0.6-0.5-0.3-1-0.7-0.4-0.4-0.8-0.8-0.4-0.5-0.8-1-0.4-0.5-0.7-1.1-0.3-0.5-0.6-1.1-0.2-0.6-0.4-1.2-0.5-1.4-0.7-2.8-0.2-1.5-0.2-3 0-1.5 0.2-2.9 0.2-1.5 0.7-2.9 0.2-0.6 0.4-1.2 0.3-0.5 0.6-1.1 0.3-0.5 0.7-1 0.4-0.5 0.8-1 0.4-0.4 0.9-0.8 0.4-0.4 0.9-0.7 0.5-0.4 1-0.6 0.5-0.3 1-0.5 1.2-0.5 2.4-0.7 1.3-0.3 2.5-0.3 1.2 0 2.5 0.3 1.2 0.2 2.3 0.7 0.6 0.2 1.1 0.5 0.5 0.2 1 0.6 0.5 0.3 0.9 0.7 0.5 0.4 0.9 0.8 0.4 0.5 0.8 1 0.4 0.5 0.7 1 0.3 0.6 0.5 1.1 0.3 0.6 0.5 1.2 0.5 1.4 0.7 2.9 0.2 1.4 0.2 2.9 0 1.5-0.2 3-0.2 1.4-0.7 2.8-0.2 0.6-0.5 1.2-0.2 0.6-0.5 1.1-0.3 0.6-0.7 1.1-0.4 0.5-0.8 1-0.4 0.4-0.9 0.8-0.4 0.4-0.9 0.7-0.5 0.3-1 0.6-0.5 0.3-1.1 0.5-0.5 0.3-1.1 0.4-0.6 0.2-1.2 0.3-0.6 0.2-1.3 0.2-0.6 0.1-1.2 0.1zm0-2.8q0.6 0 1.2-0.1 0.5-0.1 1.1-0.2 0.6-0.2 1.1-0.4 0.5-0.2 1-0.5 0.5-0.4 1-0.8 0.4-0.4 0.8-0.8 0.4-0.5 0.7-1 0.3-0.5 0.6-1.1 0.2-0.7 0.5-1.5 0.2-0.7 0.3-1.5 0.1-0.8 0.2-1.5 0.1-0.8 0-1.6 0.1-0.8 0-1.6 0-0.7-0.2-1.5-0.1-0.8-0.3-1.5-0.3-0.8-0.6-1.5-0.2-0.5-0.5-1-0.3-0.6-0.7-1-0.4-0.5-0.8-0.9-0.5-0.4-1-0.7-1-0.6-2.1-0.9-1.1-0.3-2.3-0.3-1.2 0-2.3 0.3-1.1 0.3-2.1 0.9-0.5 0.3-1 0.7-0.4 0.4-0.8 0.9-0.4 0.4-0.7 1-0.3 0.5-0.6 1-0.3 0.7-0.5 1.5-0.2 0.7-0.3 1.5-0.2 0.8-0.2 1.5-0.1 0.8-0.1 1.6 0 0.8 0.1 1.6 0 0.7 0.2 1.5 0.1 0.8 0.3 1.5 0.2 0.8 0.5 1.5 0.3 0.6 0.6 1.1 0.3 0.5 0.7 1 0.4 0.4 0.8 0.8 0.5 0.4 1 0.8 0.5 0.3 1 0.5 0.5 0.2 1.1 0.4 0.6 0.1 1.1 0.2 0.6 0.1 1.2 0.1zm6-28.5q0 0.2-0.1 0.3 0 0.2-0.1 0.3 0 0.2-0.1 0.4 0 0.1-0.1 0.2-0.2 0.4-0.5 0.8-0.3 0.3-0.7 0.5-0.4 0.3-0.9 0.4-0.4 0.1-0.9 0-0.2 0-0.4 0-0.2 0-0.4 0-0.2-0.1-0.4-0.1-0.2-0.1-0.4-0.2-0.1-0.1-0.3-0.2-0.1 0-0.3-0.1-0.1-0.1-0.3-0.2-0.1-0.1-0.3-0.2-0.1 0-0.2-0.1-0.1-0.1-0.2-0.2-0.2 0-0.3-0.1-0.1-0.1-0.2-0.1-0.2-0.1-0.3-0.1-0.1-0.1-0.3-0.1-0.1 0-0.3-0.1-0.1 0-0.3 0-0.1 0-0.3 0-0.2 0.1-0.3 0.1-0.2 0.1-0.3 0.2-0.1 0.1-0.2 0.2-0.1 0.1-0.2 0.2 0 0.1-0.1 0.2 0 0.1 0 0.2-0.1 0.2-0.1 0.3h-2q0-0.2 0-0.4 0.1-0.1 0.1-0.3 0.1-0.2 0.2-0.3 0-0.2 0.1-0.3 0.3-0.4 0.6-0.7 0.3-0.4 0.7-0.6 0.5-0.2 0.9-0.3 0.5-0.1 0.9-0.1 0.2 0 0.4 0 0.2 0 0.4 0.1 0.2 0 0.4 0.1 0.2 0 0.4 0.1 0.2 0.1 0.3 0.2 0.1 0 0.3 0.1 0.1 0.1 0.3 0.2 0.1 0.1 0.2 0.2 0.5 0.3 1 0.6 0.2 0 0.3 0.1 0.1 0 0.3 0.1 0.1 0 0.2 0 0.2 0 0.3 0 0.2 0.1 0.3 0 0.2 0 0.3 0 0.2-0.1 0.3-0.2 0.1-0.1 0.2-0.2 0.1-0.1 0.2-0.2 0-0.1 0-0.2 0.1-0.1 0.1-0.2 0-0.1 0-0.3z"/>
			<path id="Caminho_146" class="s0" d="m429 160.8l1.6-1.8v12.1l-0.9-1.1h11.6v2.8h-11.6l0.9-1.1v12.2l-1.6-1.8h14.6v2.7h-16.5v-26.7h16.5v2.7z"/>
			<path id="Caminho_147" class="s0" d="m467.1 185.2q-0.7 0-1.3-0.1-0.7 0-1.4-0.1-0.7-0.1-1.3-0.3-0.7-0.2-1.3-0.4-0.6-0.2-1-0.5-0.5-0.2-0.9-0.6-0.5-0.3-0.9-0.7-0.3-0.4-0.6-0.9-0.4-0.5-0.6-1-0.2-0.5-0.4-1.1-0.1-0.6-0.2-1.1-0.1-0.6 0-1.2v-1.2h3.5v1.2q-0.1 0.5 0 1.1 0.1 0.5 0.3 1.1 0.2 0.5 0.5 0.9 0.4 0.5 0.8 0.9 0.5 0.3 1.1 0.5 0.6 0.3 1.2 0.4 0.6 0.2 1.2 0.3 0.7 0 1.3 0 0.6 0 1.2 0 0.7-0.1 1.3-0.2 0.6-0.1 1.2-0.3 0.6-0.2 1.2-0.5 0.4-0.2 0.7-0.6 0.4-0.3 0.6-0.8 0.2-0.4 0.3-0.8 0.1-0.5 0.1-1 0-0.3-0.1-0.7-0.1-0.3-0.2-0.7-0.1-0.3-0.3-0.6-0.2-0.3-0.4-0.5-0.3-0.3-0.6-0.6-0.3-0.2-0.6-0.4-0.4-0.3-0.7-0.5-0.4-0.1-0.7-0.3-0.5-0.2-1-0.4-0.5-0.1-1-0.3-0.5-0.2-1-0.3-0.4-0.2-0.9-0.3-0.6-0.1-1.2-0.3-0.6-0.2-1.1-0.4-0.6-0.3-1.2-0.5-0.5-0.3-1-0.5-0.5-0.3-0.9-0.5-0.5-0.3-0.9-0.7-0.4-0.3-0.7-0.7-0.4-0.3-0.7-0.7-0.3-0.4-0.5-0.9-0.2-0.4-0.3-0.9-0.2-0.5-0.3-1 0-0.5 0-1 0-0.5 0-1 0.1-0.5 0.3-1 0.1-0.4 0.4-0.9 0.2-0.4 0.5-0.8 0.3-0.4 0.7-0.7 0.4-0.4 0.8-0.7 0.4-0.3 0.9-0.5 0.5-0.2 0.9-0.4 0.6-0.2 1.3-0.3 0.6-0.2 1.2-0.3 0.6-0.1 1.3-0.1 0.6-0.1 1.2-0.1 0.7 0 1.4 0.1 0.6 0 1.3 0.1 0.7 0.1 1.3 0.3 0.6 0.1 1.3 0.4 0.5 0.1 1 0.4 0.4 0.2 0.9 0.6 0.4 0.3 0.8 0.7 0.4 0.3 0.7 0.8 0.3 0.4 0.6 0.9 0.2 0.5 0.4 1.1 0.1 0.5 0.2 1.1 0.1 0.5 0 1.1v1.3h-3.5v-1.2q0.1-0.5 0-1.1-0.1-0.5-0.3-1-0.2-0.5-0.5-0.9-0.4-0.4-0.8-0.8-0.5-0.3-1.1-0.5-0.6-0.2-1.2-0.4-0.6-0.1-1.2-0.2-0.6 0-1.2 0-0.6 0-1.2 0-0.6 0.1-1.2 0.2-0.5 0.1-1.1 0.3-0.6 0.2-1.1 0.5-0.4 0.2-0.7 0.5-0.3 0.3-0.5 0.7-0.3 0.4-0.3 0.9-0.1 0.4-0.1 0.9 0 0.3 0 0.7 0.1 0.3 0.2 0.7 0.2 0.3 0.3 0.6 0.2 0.3 0.5 0.6 0.3 0.3 0.6 0.5 0.3 0.3 0.7 0.5 0.3 0.2 0.7 0.4 0.3 0.2 0.7 0.3 0.5 0.2 1 0.4 0.5 0.2 0.9 0.4 0.5 0.1 1 0.3 0.5 0.1 1 0.3 0.6 0.2 1.2 0.4 0.6 0.1 1.2 0.4 0.6 0.2 1.1 0.4 0.6 0.3 1.2 0.6 0.4 0.2 0.8 0.4 0.4 0.3 0.8 0.6 0.4 0.3 0.7 0.7 0.3 0.3 0.6 0.7 0.3 0.4 0.5 0.9 0.2 0.4 0.3 0.9 0.2 0.5 0.2 0.9 0.1 0.5 0.1 1 0 0.5-0.1 1-0.1 0.5-0.2 1-0.2 0.5-0.4 1-0.2 0.4-0.5 0.8-0.4 0.4-0.8 0.8-0.3 0.4-0.8 0.7-0.4 0.3-0.9 0.5-0.5 0.3-1 0.4-0.6 0.2-1.3 0.4-0.6 0.2-1.3 0.3-0.7 0.1-1.3 0.1-0.7 0.1-1.4 0.1z"/>
		</g>
	</g>
</svg>