<svg version="1.2" xmlns="http://www.w3.org/2000/svg" viewBox="0 0 485 243" width="485" height="243">
	<title>Novo Projeto</title>
	<style>
		.s0 { fill: #00ff99 } 
		.s1 { fill: #ff4853 } 
	</style>
	<path id="Layer" class="s0" d="m357 72.9h-39.9v-24.9c0-2.7 2.2-5 5-5h29.8c2.8 0 5.1 2.2 5.1 5z"/>
	<path id="Layer" fill-rule="evenodd" class="s1" d="m12 73h13.6v15.5c2.2-3 6.1-7.4 12-11.1 10.6-6.8 20.9-6.9 23.4-6.9 23.4 0 42.2 18.9 42.2 47 0 28-18.7 46.9-42.2 46.9-11.8 0-20.2-4.8-23.4-6.8-5.8-3.8-9.5-8.2-11.6-11.2v51.9h-14zm77 44.5c0-21.5-12.9-34.4-31.3-34.4-18.6 0-31.7 13.2-31.7 34.4 0 20.9 13.1 34.4 31.7 34.4 18.4 0 31.3-13.1 31.3-34.4z"/>
	<path id="Layer" class="s1" d="m134.9 84.9c1.5-2.1 3.9-4.9 7.5-7.3 7-4.7 14.2-5 17.3-4.9h11.4v12.4h-14.3c-13.2 0-21.5 7.1-21.5 22.4v54.4h-14v-88.9h13.6z"/>
	<path id="Layer" class="s1" d="m333.8 162.3c-3.6 2.7-8.7 2.7-12.3 0l-30.2-27.1c-4.4-3.3-7-8.5-7-13.9v-48.3h14.3v48.3c0 2 0.9 3.9 2.6 5.1l26.5 24.6 26.8-24.6c1.7-1.2 2.6-3.1 2.6-5.1v-48.3h13.9v48.3c0 5.4-2.6 10.6-6.9 13.9z"/>
	<path id="Layer" fill-rule="evenodd" class="s1" d="m223.3 70.5c27 0 45.6 19.3 45.6 47 0 27.4-18.6 46.9-45.6 46.9-26.7 0-45.3-19.4-45.3-46.9 0-27.7 18.5-47 45.3-47zm0 81.4c19.1 0 31.5-14.2 31.5-34.4 0-20.4-12.4-34.4-31.5-34.4-19.1 0-31.5 14.6-31.5 34.4 0 20.7 12.4 34.4 31.5 34.4z"/>
	<path id="Layer" class="s1" d="m459.2 161.9v-13.9c0 4.3-7.9 16.6-30.4 16.6-27.4 0-39.5-13.5-39.5-43.4v-48.2h14.1v48.2c0 24.1 9.8 30.8 25.6 30.8 17.6 0 29.8-10.7 29.8-30.8v-48.2h14v88.9z"/>
</svg>