<svg width="485" height="243" viewBox="0 0 76 64" fill="none" xmlns="http://www.w3.org/2000/svg">
<mask id="mask0" mask-type="alpha" maskUnits="userSpaceOnUse" x="12" y="0" width="64" height="64">
<path fill-rule="evenodd" clip-rule="evenodd" d="M12.5015 0.705872H75.1828V63.042H12.5015V0.705872Z" fill="white"/>
</mask>
<g mask="url(#mask0)">
<path fill-rule="evenodd" clip-rule="evenodd" d="M55.4513 3.36353C52.0556 2.21338 48.4959 1.64806 44.9664 1.70424C41.438 1.77369 37.9429 2.40455 34.6866 3.64756C28.1621 6.09768 22.6422 10.882 19.3103 16.8478C17.6486 19.8328 16.5317 23.0944 15.9776 26.4407C15.4485 29.7932 15.5166 33.2351 16.1623 36.5498C17.451 43.1803 21.1496 49.3189 26.4754 53.4876C29.1087 55.5975 32.1147 57.2443 35.3209 58.3156C38.5284 59.3928 41.9323 59.8411 45.3213 59.7666C48.7123 59.6901 52.0853 58.9851 55.2435 57.7261C58.3993 56.4617 61.3426 54.642 63.8929 52.3639C66.4488 50.0894 68.5836 47.3439 70.2206 44.3191C71.8599 41.2916 72.9267 37.9496 73.4077 34.5116C73.9239 31.0721 73.7736 27.5284 73.061 24.0869C72.7068 22.3637 72.1871 20.6689 71.5187 19.0279C70.864 17.3799 70.0496 15.7909 69.1197 14.2615C71.2983 17.1006 72.9776 20.3657 73.9857 23.8552C75.0028 27.3415 75.3785 31.035 75.0869 34.6938C74.7837 38.3515 73.826 41.9783 72.2352 45.3288C70.644 48.6806 68.4075 51.73 65.7225 54.3229C60.3752 59.5641 52.9768 62.6611 45.4411 63.0126C41.6736 63.1745 37.8686 62.6665 34.2698 61.4992C30.6741 60.3268 27.289 58.5127 24.3269 56.1636C18.4129 51.4479 14.2882 44.5641 12.9686 37.1408C12.3311 33.429 12.3459 29.6243 13.0143 25.9339C13.3595 24.0908 13.8569 22.2767 14.5288 20.5292C15.2023 18.7825 16.0312 17.099 17.0006 15.5037C18.9373 12.3139 21.4458 9.47907 24.377 7.20257C27.3058 4.92529 30.624 3.16651 34.1395 2.06356C37.6627 0.988321 41.3558 0.542384 44.9895 0.758915C48.6223 0.979738 52.1949 1.85991 55.4513 3.36353Z" fill="#00ACFF"/>
</g>
<mask id="mask1" mask-type="alpha" maskUnits="userSpaceOnUse" x="0" y="3" width="69" height="36">
<path fill-rule="evenodd" clip-rule="evenodd" d="M0.0444336 3.44159H68.8666V38.0789H0.0444336V3.44159Z" fill="white"/>
</mask>
<g mask="url(#mask1)">
<path fill-rule="evenodd" clip-rule="evenodd" d="M68.8666 8.77575C64.4564 9.90805 59.8952 7.60833 58.3481 3.44159C59.3805 7.11007 57.798 10.9412 54.6475 12.9889C39.8673 16.1326 15.2995 21.6435 7.34078 26.2328C1.26602 29.7355 -0.786613 32.7976 0.338809 35.0821C1.48472 37.408 5.71333 38.5009 11.725 37.9296C7.29192 35.5452 9.68305 28.9563 17.916 24.9909C23.8379 22.1383 42.537 16.8345 54.3126 13.6241C58.2705 13.2222 62.0901 15.449 63.4791 19.1904C62.2753 14.9137 64.6195 10.409 68.8666 8.77575Z" fill="#00439B"/>
</g>
<path fill-rule="evenodd" clip-rule="evenodd" d="M62.0589 22.1258C58.1929 23.0212 54.2784 20.8812 53.0311 17.1628C53.8189 20.3343 52.4553 23.5819 49.8201 25.3552C39.2888 27.5712 16.719 33.6438 10.9539 36.6866C9.36386 37.5256 3.34729 40.4345 4.07434 44.7629C4.41789 46.808 9.61143 48.1923 15.7635 47.7427C1.47639 40.9515 35.8988 30.2029 49.5365 26.0403C52.894 25.8994 56.0294 27.9445 57.1211 31.1995C56.1755 27.3924 58.323 23.4677 62.0589 22.1258Z" fill="#00439B"/>
<path fill-rule="evenodd" clip-rule="evenodd" d="M56.1053 33.3132C52.6701 34.1094 49.1782 32.2637 48.0519 29.0331C48.7474 31.7149 47.6356 34.4719 45.424 36.0519C41.4627 36.8908 33.8126 38.64 29.6319 40.193C18.9152 44.173 8.85849 49.642 10.6771 52.7537C11.5687 54.2803 16.1711 56.0009 22.578 54.8949C22.6481 54.8825 21.9707 54.8546 21.9003 54.8457C20.5885 54.6826 17.5207 53.6792 18.0661 51.5833C19.1318 47.4903 33.991 41.0024 44.6931 36.8017C47.7861 36.5321 50.7357 38.3128 51.7529 41.232C50.8948 37.9224 52.7878 34.4974 56.1053 33.3132Z" fill="#00439B"/>
<path fill-rule="evenodd" clip-rule="evenodd" d="M50.1521 43.6771C47.6516 44.3125 45.0388 42.9032 44.1274 40.4088C44.7449 42.6107 43.8644 44.8885 42.0728 46.0761C35.4856 48.0125 16.0103 54.1988 18.6442 58.9355C19.5169 60.5047 25.0042 61.5226 29.1928 59.7586C29.1928 59.7586 25.7867 60.1536 24.7549 58.7775C22.8132 56.1892 36.8899 49.0093 42.2158 46.4175C44.3545 46.3573 46.3845 47.6934 47.1657 49.8313C46.4486 47.2742 47.7481 44.6124 50.1521 43.6771Z" fill="#00439B"/>
<mask id="mask2" mask-type="alpha" maskUnits="userSpaceOnUse" x="27" y="50" width="19" height="14">
<path fill-rule="evenodd" clip-rule="evenodd" d="M27.9683 50.0934H45.3767V63.6547H27.9683V50.0934Z" fill="white"/>
</mask>
<g mask="url(#mask2)">
<path fill-rule="evenodd" clip-rule="evenodd" d="M45.3767 52.8773C43.0592 53.4405 40.6791 52.2403 39.8873 50.0934C40.4326 52.0576 39.494 54.101 37.6988 55.102C33.9585 56.5326 26.9844 59.5262 28.0846 62.1483C28.5894 63.3515 32.34 64.5237 38.6537 62.743C38.6537 62.743 33.0469 63.4446 31.6943 62.029C29.9448 60.1983 35.0853 56.94 38.0306 55.2882C39.994 55.2332 41.8281 56.3718 42.504 58.2045C41.8928 56.0025 43.1426 53.6987 45.3767 52.8773Z" fill="#00439B"/>
</g>
</svg>
